<svg version="1.2" xmlns="http://www.w3.org/2000/svg" viewBox="0 0 198 194" width="1980" height="1940">
	<style>
		.s0 { fill: #000000 } 
		.s1 { opacity: .1;fill: #000000 } 
	</style>
	<g>
		<path class="s0" d="m185.75 22.55c-8.55 4.45-13.2 13.6-10.9 21.35 1 3.35 0.75 4.6-2.45 12.55-2 4.85-4.6 12.25-5.8 16.4-1.65 5.85-2.65 7.7-4.15 8-3.1 0.55-5.35 3.15-6.05 6.85-0.7 3.8-6.45 8.95-8.6 7.75-4.1-2.35-5.8-4.95-5.8-8.9 0-4.75-2.25-8.55-5.05-8.55-2.35 0-2.35 0.15-0.4-4.45 9.6-22.95-6.85-47.9-31.55-47.9-19.6 0-33.45 14-33.5 33.85 0 9.7 0.3 11 4.3 18.75 0.2 0.4-0.75 0.75-2.05 0.75-3.35 0-5.55 2.75-5.95 7.35-0.25 3.25-1 4.35-4.5 6.9l-4.2 3.05-3.35-2.55c-2.2-1.65-3.7-3.9-4.3-6.4-0.8-3.15-1.7-4.2-5.1-5.75l-4.1-1.95-6.05-19.55c-6.75-21.7-6.8-22.6-0.85-16 6.45 7.2 10.4 8.55 14.8 5 3-2.45 1.85-3.8-1.45-1.65-3.3 2.15-5.95 1-12.15-5.35-2.75-2.8-5.55-5.1-6.3-5.1-0.7 0-1.75-1.25-2.35-2.75-4.6-12.15-13.7-11.85-11.05 0.4 0.85 4 0.75 5.15-0.55 6.6-3.1 3.4-2.85 10.8 0.6 17.35 4.8 9.2 3.65 16.4-2.75 16.4-1.3 0-2.15 0.6-2.15 1.6 0 2.3 4.8 1 8-2.2 3.55-3.45 3.25-9.15-0.85-16.9-3.4-6.45-3.8-9.65-1.8-13.3 1.2-2.15 1.9-0.75 9.3 18.1l8 20.4-2.45 2.2c-1.75 1.55-2.25 2.75-1.75 4.35 0.35 1.25 0.85 3.25 1.1 4.5 1.1 5.1 4.05 8.75 7.45 9.25 3.25 0.5 3.5 0.9 8.45 13 4.1 10.15 5.45 12.5 7.05 12.5 2.35 0 2.3-0.6-1.05-12.45-2.65-9.15-2.6-9.75 0.4-8.15 3.15 1.7 8.1 1.3 11.65-0.9l3.25-2 0.55 7.25 0.5 7.25-3.9 4.05c-7.75 8-4.95 13.95 7.15 15 4.4 0.4 7.9 1.05 7.75 1.45-0.15 0.4-1.65 3.6-3.3 7.2l-3 6.5-4.25-0.5c-13.75-1.5-10.8 12.45 3.65 17.25 7.7 2.55 8.4 2 12.6-10.25 2-5.9 5.1-12.75 6.85-15.15l3.2-4.4 6.5 0.2c8.7 0.35 9.35 0.6 10.85 4.7 1.8 5.05 6.45 9.95 11.1 11.85 3.7 1.45 4 1.85 4 5.45 0 11.1 8.95 11.7 13.45 0.9 3.8-9.1 1.55-14.95-6.3-16.25-4.65-0.75-9.85-4.7-10.35-7.8-0.25-1.4 1.85-2.95 8.7-6.5l9-4.7-0.15-10-0.15-10h5.15c2.85-0.05 6-0.45 7.05-0.95 1.7-0.75 1.85-0.6 1.25 1.55-3.45 13-4.95 22-3.8 23.15 2.35 2.35 4.6-0.9 10.2-14.75 4-10 6.1-14 7.6-14.55 4-1.5 8.35-13.2 6.3-17.05-0.8-1.45-0.4-3.95 1.55-10.05 1.4-4.5 3.35-12.15 4.3-16.95 1.4-7.25 2.1-9 3.95-9.85 5.25-2.35 7.15-8.65 5.05-16.5-1-3.85-0.95-5 0.5-8.05 2.65-5.55 1.2-6-6.55-1.95zm3.35 11.3c1.25 6.25 0.1 10.15-3.65 12.2-6.45 3.4-10.45-4.3-6.5-12.45 2.5-5.2 8.35-9.75 8.8-6.8 0.15 0.95 0.75 4.1 1.35 7.05zm-166.1-2.6c1.1 1.8 1.95 3.9 1.95 4.75-0.05 0.95-0.5 0.65-1.15-0.75-0.6-1.25-1.5-2.25-1.95-2.25-0.45 0-0.9 1-0.95 2.25-0.1 1.8-0.3 1.7-0.9-0.75-1.8-7.15-0.35-8.75 3-3.25zm93.15-0.65c14.2 4.55 23.3 22.95 18.9 38.3-2.05 7.05-3.15 7.85-9.7 6.8-4.3-0.7-10.95-0.4-25.35 1.05l-19.5 2-1.75-2.15c-5.25-6.45-6.2-21.9-1.85-30.4 7.7-15.05 22.5-20.9 39.25-15.6zm-82.95 30.2c3.7 11.9 6.5 21.85 6.25 22.1-1.05 1-2.5-2.15-9.85-21.15-7.2-18.8-9.3-25.55-6.05-19.5 2.05 3.75 2.8 3.45 2.1-0.85-1.15-7.3 1-1.75 7.55 19.4zm146.8-3.3c-0.95 5.1-1.6 6.5-2.7 6.05-0.8-0.3-1.9-0.55-2.4-0.55-1.5 0-1-2.65 1.6-8.65 3.5-7.8 5.25-6.2 3.5 3.15zm-2.15 9c1.7 1.75-5.3 16.6-7.7 16.3-3.05-0.35-3.05-0.75 0-11.15 1.95-6.65 4.5-8.35 7.7-5.15zm-57.5 13.25c0.3 0.95 0.8 9.6 1.15 19.25 0.35 9.6 0.9 18.3 1.15 19.25 0.35 1.25-0.1 1.75-1.55 1.75-2.65 0-2.85-1.1-3.65-20.25-0.8-19.4 1.1-18-21.95-16-22.7 1.9-20.95 0.2-20.15 19.5 0.5 13.25 0.35 15.75-0.85 15.75-2.6 0-4.85-35.6-2.3-36.45 1.35-0.45 38.75-4.15 44.5-4.4 2.25-0.1 3.3 0.35 3.65 1.6zm18.45 4.5c0.35 3.1-0.4 3.35-3.25 1.2-2.6-1.95-4.15-1.85-6.55 0.55-3.3 3.3-2.45 5.75 4.4 12.85l6.4 6.65 0.7 10.5 0.7 10.5-11.75 5.8c-14.8 7.35-18.3 5.2-9.05-5.65l4.4-5.15-0.85-14c-0.45-7.7-0.85-17.45-0.9-21.65l-0.05-7.6 7.75 1.6c7.25 1.55 7.75 1.85 8.05 4.4zm-90.85 1.7c1.3 2.35 1.4 10.05 0.15 10.05-1 0-2.05-3.45-2.1-7l-0.05-2.5-1.75 2.3c-1.95 2.55-3.2 2.05-3.2-1.3 0-3.95 5.05-5.1 6.95-1.55zm66.85 2.2l0.3 3.65-5.55 0.35c-3.9 0.25-5.55 0-5.55-0.85 0-1.65-3.3-3.3-6.65-3.3-5.75 0-0.4-2.35 6.9-3.05 10.2-0.95 10.2-0.95 10.55 3.2zm52.05-1.3c0.45 3.4-1.4 4.9-2.8 2.25-0.6-1.15-1.6-2.1-2.15-2.1-0.55 0-0.75 0.45-0.4 1 0.8 1.35-0.5 8-1.6 8-1.25 0-1.1-7.7 0.15-10.15 1.55-2.85 6.35-2.15 6.8 1zm-128.85 0.7c0 0.8-0.7 1.8-1.55 2.1-1.9 0.75-3.95-1.05-3-2.55 1-1.65 4.55-1.3 4.55 0.45zm55-0.65c0 1.1-2.45 2.1-5.1 2.1-1.15 0-2.35 1-2.9 2.5-1.65 4.3-8.25 3.65-7.8-0.75 0.3-3.15 0.45-3.25 5.8-3.85 8.95-0.95 10-0.95 10 0zm81 0.6c1 1.2 0.9 1.6-0.4 2.1-1.65 0.65-4.6-1.1-4.6-2.7 0-1.45 3.65-1 5 0.6zm-34.55 5.05c5.75 5.1 6.3 5.9 6.2 9.45-0.15 4.55-0.1 4.55-9.4-4.4-5.8-5.6-7.25-8.25-5.6-9.95 1.3-1.3 2.55-0.6 8.8 4.9zm-42.65 3.2l0.3 5.25h-5.05-5.05v-4.95c0-4.8 0.1-4.95 3.25-5.35 6-0.75 6.25-0.55 6.55 5.05zm4.65-4.8c0.3 0.5 0.15 1.2-0.45 1.55-1.3 0.8-1.3 4.5 0 4.5 0.55 0 1 0.9 1 2 0 1.1-0.65 2-1.5 2-1.15 0-1.5-1.3-1.5-5.5 0-5.05 1-6.9 2.45-4.55zm-60 3.15c-0.85 1.4-5.45 1.6-6.55 0.25-0.9-1.05-0.6-1.5 1.2-2.2 2.35-0.85 6.2 0.55 5.35 1.95zm132-1.2c1.15 1.9-2.1 3.2-4.85 1.95-1.9-0.85-2.3-1.4-1.4-2 1.75-1.1 5.55-1.05 6.25 0.05zm-104.45 5.75c0 1.25-1.35 3.15-3.3 4.6l-3.3 2.55-0.15-3.9c-0.1-3.05 0.4-4.25 2.5-5.9 2.85-2.25 4.2-1.4 4.25 2.65zm-13-1c7.3 4.8 4.6 10.5-2.95 6.25-4.45-2.5-4.55-2.7-2.9-6.35 1.4-3.1 1.05-3.1 5.85 0.1zm101.85-0.1c1.7 3.8 1.5 4.2-2.95 6.5-7.5 3.8-10.15-1.55-3.15-6.35 4.7-3.25 4.7-3.25 6.1-0.15zm-113.85-0.15c0 1.5-2.1 2.6-5.1 2.6-2.8 0-2.3-1.7 0.85-2.85 3.8-1.4 4.25-1.35 4.25 0.25zm71.35 0.85c0.35 1.25 0.65 5.05 0.65 8.5v6.25h-10-10v-2.75c0.05-3.3 2.75-6.95 5.5-7.4 1.3-0.25 2.1-1.3 2.3-3.05 0.3-2.45 0.8-2.75 5-3.05 2.6-0.2 5-0.45 5.35-0.55 0.35-0.1 0.9 0.8 1.2 2.05zm52.5-1.15c3.7 1.3 4.15 2.9 0.85 2.9-2.25 0-4.7-1.65-4.7-3.2 0-1 0.1-1 3.85 0.3zm-82.45 3.4c0.4 1.6 1.35 2.5 2.55 2.5 1.05 0 2.2 0.85 2.5 1.9 0.35 1.05 1.3 2.15 2.1 2.5 5.6 2.15-4.7 9.6-13.25 9.6-0.95 0-2.3-9.6-2.3-16.25 0-4 7.4-4.2 8.4-0.25zm79.55 2.85c0 1.4-8.8 23.45-8.9 22.4 0-0.45 1.3-6.25 2.95-12.9 1.65-6.7 3-12.35 3-12.6 0-0.3 0.7 0.05 1.5 0.75 0.85 0.7 1.5 1.75 1.45 2.35zm-48.95 14.15c0 2.85-4.2 3.15-24.5 1.85l-10-0.7 6-1.75c4.05-1.15 9.7-1.75 17.25-1.8l11.25-0.1zm4.85 5.05c0.15 0.15-1.25 2-3.15 4.1l-3.5 3.85-23.1-1.1c-25.7-1.2-25.65-1.2-21.55-5.45l2.95-3.05 24 0.65c13.2 0.4 24.15 0.85 24.35 1zm-26.7 9.05c19.2 0.75 19.65 0.85 20.1 4.4 0.3 2.8 1.7 2.75-28.7 0.45-18.8-1.45-20.5-1.85-20.55-5.35 0-1.05 1.25-1.25 5.75-0.75 3.15 0.3 13.7 0.9 23.4 1.25zm29.45 10.95c2.1 4.45 4.35 5.95 11.4 7.75 6.4 1.65 7.5 4.55 4.5 12.3-3.25 8.5-8.3 7.75-7.15-1.1l0.55-4-6.2-3c-5.65-2.75-10.6-8.2-10.7-11.7 0-0.55 4.5-3.5 5.7-3.75 0.1-0.05 0.95 1.55 1.9 3.5zm-31.85-0.8c-2.4 2.75-6.3 11.1-8.8 18.95l-2.3 7.2-3.2-2.8c-1.7-1.5-5.25-3.8-7.8-5.05-7.05-3.4-2.1-5.65 5.6-2.55 1.15 0.45 1.75 0.25 1.75-0.65 0-1.55 5.6-13.65 7.2-15.55 0.55-0.75 2.85-1.3 5.1-1.3 3.75 0 3.9 0.1 2.45 1.75z"/>
		<path class="s0" d="m103 39c0 0.55 1 1 2.3 1 1.25 0 3.25 0.7 4.4 1.5 1.25 0.9 2.4 1.1 2.75 0.6 0.3-0.55-0.4-1.65-1.65-2.55-2.5-1.7-7.8-2.1-7.8-0.55z"/>
		<path class="s0" d="m83.85 40.9c-1.3 1.05-2.1 2.2-1.8 2.5 0.7 0.7 7.85-2.6 7.9-3.65 0.1-1.45-3.75-0.75-6.1 1.15z"/>
		<path class="s0" d="m103.05 45.95c-2.4 4.45-0.3 11.05 3.5 11.05 1.55 0 3.45-3 3.45-5.45 0-0.85-0.65-1.55-1.5-1.55-0.8 0-1.5-0.7-1.5-1.5 0-0.85 0.5-1.5 1.1-1.5 0.8 0 0.75-0.45-0.1-1.5-1.7-2.05-3.75-1.9-4.95 0.45z"/>
		<path class="s0" d="m85.55 46.6c-3.3 3.3-1.45 11.4 2.6 11.4 3.75 0 5.15-6.45 1.6-7.35-1.75-0.45-1.95-0.85-1-1.8 1.65-1.65 1.55-2.5-0.2-3.2-0.85-0.3-2.2 0.1-3 0.95z"/>
		<path class="s0" d="m108.7 61c-1.05 4.15-11.6 6.3-18.6 3.9-4.1-1.45-5-0.55-1.65 1.65 3.8 2.5 12.4 2.2 18.3-0.7 2.6-1.25 5.3-2.2 6-2.05 1.85 0.4 1.55-1.25-0.6-3.15-2.35-2.15-2.8-2.1-3.45 0.35z"/>
		<path class="s0" d="m96 72c0 0.55 1.55 1 3.45 1 1.9 0 3.7-0.45 4.05-1 0.35-0.6-1-1-3.45-1-2.2 0-4.05 0.45-4.05 1z"/>
		<path class="s0" d="m106.5 126c-1.8 1.95-1.75 2 2.8 2 3.6 0 4.85-0.45 5.7-2 1-1.85 0.75-2-2.8-2q-3.9-0.01-5.7 2z"/>
		<path class="s0" d="m205 74.65c-3.65 1.45-4 3.4-4 22.8 0 21.15 0.6 23.55 5.85 23.55 4.15 0 5.15-1.75 5.15-8.7v-6.3h4.75c16.1 0 22.9-20.9 9.45-29.15-3.55-2.25-17.5-3.7-21.2-2.2zm14.8 9.9c5.05 3.55 1.85 12.45-4.45 12.45h-3.35v-6.35c0-8.15 2.3-9.95 7.8-6.1z"/>
		<path class="s0" d="m243 74.7c-3.65 1.3-4 3.3-4 23.4 0 21.4 0.35 22.9 5.5 22.9 4.15 0 5.5-2.45 5.5-10.15 0-10.1 2.95-9.6 8.2 1.35 4 8.35 6.55 10.15 11.35 7.95 3.4-1.55 3.1-4.05-1.5-12.15-3.85-6.8-3.9-7-1.9-8.05 4.55-2.5 6.2-11.95 3.05-17.95-3.35-6.4-17.65-10.35-26.2-7.3zm14.8 9.85c4.7 3.3 1.65 10.45-4.45 10.45h-3.35v-6c0-6.65 2.55-8.1 7.8-4.45z"/>
		<path class="s0" d="m279.55 75.55c-1.3 1.35-1.55 4.8-1.55 21.95 0 22.05 0.35 23.5 5.5 23.5 4.85 0 5.5-2.75 5.5-23.5 0-15.65-0.3-19.45-1.55-21.3-1.8-2.55-5.6-2.9-7.9-0.65z"/>
		<path class="s0" d="m298.65 75.85c-2.4 2.65-2.5 41.15-0.1 43.6 6.1 6.05 9.9-0.1 9.2-15.05l-0.5-11.55 6.25 11.8c7.5 14.1 9.35 16.35 13.35 16.35 5.6 0 6.15-2.1 6.15-23.5 0-20.65-0.65-23.5-5.4-23.5-4.9 0-5.85 2.8-5.45 15.8 0.4 13.55 0.85 13.7-7.5-2-7.2-13.5-11.6-16.8-16-11.95z"/>
		<path class="s0" d="m338.65 75.5c-4.05 4.05-1.1 8.75 5.65 8.9l4.2 0.1 0.5 17.3c0.55 18.4 0.75 19.15 5.7 19.2 4.75 0 5.3-1.9 5.3-19.55 0-12.45 0.3-16.5 1.25-16.55 0.7-0.1 2.7-0.25 4.45-0.35 5.5-0.45 7.95-4.35 5.3-8.55-1.45-2.35-30.05-2.8-32.35-0.5z"/>
		<path class="s0" d="m379.2 75.55c-2.15 1.55-2.2 2-2.2 21.95 0 24.8-0.8 23.5 14.6 23.5 12.25 0 15.6-1.6 13.85-6.65-0.95-2.8-1.2-2.85-9.2-3.15l-8.25-0.3v-4.45-4.45h6.45c5.4 0 6.65-0.35 7.5-1.95 2.8-5.2 0-8.05-8-8.05h-5.95v-4-4h7.3c8.05 0 9.7-0.9 9.7-5.2 0-4.8-19.95-7.3-25.8-3.25z"/>
		<path class="s0" d="m413.55 75.55c-1.3 1.35-1.55 4.8-1.55 22v20.4l2.45 1.6c3.8 2.5 22.15 1.75 24.15-1 3.6-4.95-0.2-8.55-9.1-8.55h-6.5v-15.8c0-12.65-0.3-16.2-1.55-18-1.8-2.55-5.6-2.9-7.9-0.65z"/>
		<path class="s0" d="m464.2 75.55c-2.9 2.05-3.5 41-0.65 43.9 4.8 4.75 9.45 0.45 9.45-8.8 0-9.85 2.5-9.35 8.2 1.6 4.55 8.75 6.95 10.35 11.75 7.8 2.9-1.55 2.55-3.55-1.9-11.8-3.8-6.9-3.9-7.25-2-8.25 7.95-4.3 6.05-19.15-3-23.75-5.55-2.8-18.25-3.2-21.85-0.7zm16.6 9c4.8 3.4 1.9 10.45-4.35 10.45h-3.45v-6c0-6.65 2.55-8.1 7.8-4.45z"/>
		<path class="s0" d="m510.5 75.15c-23.1 12.75-8.05 56.6 15.3 44.45 14-7.3 14.8-34.2 1.3-43.35-3.75-2.5-12.95-3.1-16.6-1.1zm11.7 10.85c6.7 6.75 2.15 27.7-5.55 25.45-7-2.1-9.1-19.45-3.1-25.9 3.05-3.3 4.95-3.2 8.65 0.45z"/>
		<path class="s1" d="m446.7 109.1c-2.7 1.6-3.85 5.45-2.5 8.45 2.55 5.65 10.8 3.4 10.8-2.95 0-4.75-4.5-7.7-8.3-5.5z"/>
	</g>
</svg>