<?xml version="1.0" standalone="no"?>
<!DOCTYPE svg PUBLIC "-//W3C//DTD SVG 20010904//EN"
 "http://www.w3.org/TR/2001/REC-SVG-20010904/DTD/svg10.dtd">
<svg version="1.0" xmlns="http://www.w3.org/2000/svg"
 width="600.000000pt" height="335.000000pt" viewBox="0 0 600.000000 335.000000"
 preserveAspectRatio="xMidYMid meet">
<g transform="translate(0.000000,335.000000) scale(0.050000,-0.050000)"
fill="#000000" stroke="none">
<path d="M4235 4849 c-171 -89 -264 -272 -218 -427 20 -67 15 -92 -49 -251
-40 -97 -92 -245 -116 -328 -33 -117 -53 -154 -83 -160 -62 -11 -107 -63 -121
-137 -14 -76 -129 -179 -172 -155 -82 47 -116 99 -116 178 0 95 -45 171 -101
171 -47 0 -47 -3 -8 89 192 459 -137 958 -631 958 -392 0 -669 -280 -670 -677
0 -194 6 -220 86 -375 4 -8 -15 -15 -41 -15 -67 0 -111 -55 -119 -147 -5 -65
-20 -87 -90 -138 l-84 -61 -67 51 c-44 33 -74 78 -86 128 -16 63 -34 84 -102
115 l-82 39 -121 391 c-135 434 -136 452 -17 320 129 -144 208 -171 296 -100
60 49 37 76 -29 33 -66 -43 -119 -20 -243 107 -55 56 -111 102 -126 102 -14 0
-35 25 -47 55 -92 243 -274 237 -221 -8 17 -80 15 -103 -11 -132 -62 -68 -57
-216 12 -347 96 -184 73 -328 -55 -328 -26 0 -43 -12 -43 -32 0 -46 96 -20
160 44 71 69 65 183 -17 338 -68 129 -76 193 -36 266 24 43 38 15 186 -362
l160 -408 -49 -44 c-35 -31 -45 -55 -35 -87 7 -25 17 -65 22 -90 22 -102 81
-175 149 -185 65 -10 70 -18 169 -260 82 -203 109 -250 141 -250 47 0 46 12
-21 249 -53 183 -52 195 8 163 63 -34 162 -26 233 18 l65 40 11 -145 10 -145
-78 -81 c-155 -160 -99 -279 143 -300 88 -8 158 -21 155 -29 -3 -8 -33 -72
-66 -144 l-60 -130 -85 10 c-275 30 -216 -249 73 -345 154 -51 168 -40 252
205 40 118 102 255 137 303 l64 88 130 -4 c174 -7 187 -12 217 -94 36 -101
129 -199 222 -237 74 -29 80 -37 80 -109 0 -222 179 -234 269 -18 76 182 31
299 -126 325 -93 15 -197 94 -207 156 -5 28 37 59 174 130 l180 94 -3 200 -3
200 103 0 c57 1 120 9 141 19 34 15 37 12 25 -31 -69 -260 -99 -440 -76 -463
47 -47 92 18 204 295 80 200 122 280 152 291 80 30 167 264 126 341 -16 29 -8
79 31 201 28 90 67 243 86 339 28 145 42 180 79 197 105 47 143 173 101 330
-20 77 -19 100 10 161 53 111 24 120 -131 39z m67 -226 c25 -125 2 -203 -73
-244 -129 -68 -209 86 -130 249 50 104 167 195 176 136 3 -19 15 -82 27 -141z
m-3322 52 c22 -36 39 -78 39 -95 -1 -19 -10 -13 -23 15 -12 25 -30 45 -39 45
-9 0 -18 -20 -19 -45 -2 -36 -6 -34 -18 15 -36 143 -7 175 60 65z m1863 13
c284 -91 466 -459 378 -766 -41 -141 -63 -157 -194 -136 -86 14 -219 8 -507
-21 l-390 -40 -35 43 c-105 129 -124 438 -37 608 154 301 450 418 785 312z
m-1659 -604 c74 -238 130 -437 125 -442 -21 -20 -50 43 -197 423 -144 376
-186 511 -121 390 41 -75 56 -69 42 17 -23 146 20 35 151 -388z m2936 66 c-19
-102 -32 -130 -54 -121 -16 6 -38 11 -48 11 -30 0 -20 53 32 173 70 156 105
124 70 -63z m-43 -180 c34 -35 -106 -332 -154 -326 -61 7 -61 15 0 223 39 133
90 167 154 103z m-1150 -265 c6 -19 16 -192 23 -385 7 -192 18 -366 23 -385 7
-25 -2 -35 -31 -35 -53 0 -57 22 -73 405 -16 388 22 360 -439 320 -454 -38
-419 -4 -403 -390 10 -265 7 -315 -17 -315 -52 0 -97 712 -46 729 27 9 775 83
890 88 45 2 66 -7 73 -32z m369 -90 c7 -62 -8 -67 -65 -24 -52 39 -83 37 -131
-11 -66 -66 -49 -115 88 -257 l128 -133 14 -210 14 -210 -235 -116 c-296 -147
-366 -104 -181 113 l88 103 -17 280 c-9 154 -17 349 -18 433 l-1 152 155 -32
c145 -31 155 -37 161 -88z m-1817 -34 c26 -47 28 -201 3 -201 -20 0 -41 69
-42 140 l-1 50 -35 -46 c-39 -51 -64 -41 -64 26 0 79 101 102 139 31z m1337
-44 l6 -73 -111 -7 c-78 -5 -111 0 -111 17 0 33 -66 66 -133 66 -115 0 -8 47
138 61 204 19 204 19 211 -64z m1041 26 c9 -68 -28 -98 -56 -45 -12 23 -32 42
-43 42 -11 0 -15 -9 -8 -20 16 -27 -10 -160 -32 -160 -25 0 -22 154 3 203 31
57 127 43 136 -20z m-2577 -14 c0 -16 -14 -36 -31 -42 -38 -15 -79 21 -60 51
20 33 91 26 91 -9z m1100 13 c0 -22 -49 -42 -102 -42 -23 0 -47 -20 -58 -50
-33 -86 -165 -73 -156 15 6 63 9 65 116 77 179 19 200 19 200 0z m1620 -12
c20 -24 18 -32 -8 -42 -33 -13 -92 22 -92 54 0 29 73 20 100 -12z m-691 -101
c115 -102 126 -118 124 -189 -3 -91 -2 -91 -188 88 -116 112 -145 165 -112
199 26 26 51 12 176 -98z m-853 -64 l6 -105 -101 0 -101 0 0 99 c0 96 2 99 65
107 120 15 125 11 131 -101z m93 96 c6 -10 3 -24 -9 -31 -26 -16 -26 -90 0
-90 11 0 20 -18 20 -40 0 -22 -13 -40 -30 -40 -23 0 -30 26 -30 110 0 101 20
138 49 91z m-1200 -63 c-17 -28 -109 -32 -131 -5 -18 21 -12 30 24 44 47 17
124 -11 107 -39z m2640 24 c23 -38 -42 -64 -97 -39 -38 17 -46 28 -28 40 35
22 111 21 125 -1z m-2089 -115 c0 -25 -27 -63 -66 -92 l-66 -51 -3 78 c-2 61
8 85 50 118 57 45 84 28 85 -53z m-260 20 c146 -96 92 -210 -59 -125 -89 50
-91 54 -58 127 28 62 21 62 117 -2z m2037 2 c34 -76 30 -84 -59 -130 -150 -76
-203 31 -63 127 94 65 94 65 122 3z m-2277 3 c0 -30 -42 -52 -102 -52 -56 0
-46 34 17 57 76 28 85 27 85 -5z m1427 -17 c7 -25 13 -101 13 -170 l0 -125
-200 0 -200 0 0 55 c1 66 55 139 110 148 26 5 42 26 46 61 6 49 16 55 100 61
52 4 100 9 107 11 7 2 18 -16 24 -41z m1050 23 c74 -26 83 -58 17 -58 -45 0
-94 33 -94 64 0 20 2 20 77 -6z m-1649 -68 c8 -32 27 -50 51 -50 21 0 44 -17
50 -38 7 -21 26 -43 42 -50 112 -43 -94 -192 -265 -192 -19 0 -46 192 -46 325
0 80 148 84 168 5z m1591 -57 c0 -28 -176 -469 -178 -448 0 9 26 125 59 258
33 134 60 247 60 252 0 6 14 -1 30 -15 17 -14 30 -35 29 -47z m-979 -283 c0
-57 -84 -63 -490 -37 l-200 14 120 35 c81 23 194 35 345 36 l225 2 0 -50z m97
-101 c3 -3 -25 -40 -63 -82 l-70 -77 -462 22 c-514 24 -513 24 -431 109 l59
61 480 -13 c264 -8 483 -17 487 -20z m-534 -181 c384 -15 393 -17 402 -88 6
-56 34 -55 -574 -9 -376 29 -410 37 -411 107 0 21 25 25 115 15 63 -6 274 -18
468 -25z m589 -219 c42 -89 87 -119 228 -155 128 -33 150 -91 90 -246 -65
-170 -166 -155 -143 22 l11 80 -124 60 c-113 55 -212 164 -214 234 0 11 90 70
114 75 2 1 19 -31 38 -70z m-637 16 c-48 -55 -126 -222 -176 -379 l-46 -144
-64 56 c-34 30 -105 76 -156 101 -141 68 -42 113 112 51 23 -9 35 -5 35 13 0
31 112 273 144 311 11 15 57 26 102 26 75 0 78 -2 49 -35z"/>
<path d="M2580 4520 c0 -11 20 -20 46 -20 25 0 65 -14 88 -30 25 -18 48 -22
55 -12 6 11 -8 33 -33 51 -50 34 -156 42 -156 11z"/>
<path d="M2197 4482 c-26 -21 -42 -44 -36 -50 14 -14 157 52 158 73 2 29 -75
15 -122 -23z"/>
<path d="M2581 4381 c-48 -89 -6 -221 70 -221 31 0 69 60 69 109 0 17 -13 31
-30 31 -16 0 -30 14 -30 30 0 17 10 30 22 30 16 0 15 9 -2 30 -34 41 -75 38
-99 -9z"/>
<path d="M2231 4368 c-66 -66 -29 -228 52 -228 75 0 103 129 32 147 -35 9 -39
17 -20 36 33 33 31 50 -4 64 -17 6 -44 -2 -60 -19z"/>
<path d="M2694 4080 c-21 -83 -232 -126 -372 -78 -82 29 -100 11 -33 -33 76
-50 248 -44 366 14 52 25 106 44 120 41 37 -8 31 25 -12 63 -47 43 -56 42 -69
-7z"/>
<path d="M2440 3860 c0 -11 31 -20 69 -20 38 0 74 9 81 20 7 12 -20 20 -69 20
-44 0 -81 -9 -81 -20z"/>
<path d="M2650 2780 c-36 -39 -35 -40 56 -40 72 0 97 9 114 40 20 37 15 40
-56 40 -52 0 -90 -13 -114 -40z"/>
<path d="M4620 3807 c-73 -29 -80 -68 -80 -456 0 -423 12 -471 117 -471 83 0
103 35 103 174 l0 126 95 0 c322 0 458 418 189 583 -71 45 -350 74 -424 44z
m296 -198 c101 -71 37 -249 -89 -249 l-67 0 0 127 c0 163 46 199 156 122z"/>
<path d="M5380 3806 c-73 -26 -80 -66 -80 -468 0 -428 7 -458 110 -458 83 0
110 49 110 203 0 202 59 192 164 -27 80 -167 131 -203 227 -159 68 31 62 81
-30 243 -77 136 -78 140 -38 161 91 50 124 239 61 359 -67 128 -353 207 -524
146z m296 -197 c94 -66 33 -209 -89 -209 l-67 0 0 120 c0 133 51 162 156 89z"/>
<path d="M6111 3789 c-26 -27 -31 -96 -31 -439 0 -441 7 -470 110 -470 97 0
110 55 110 470 0 313 -6 389 -31 426 -36 51 -112 58 -158 13z"/>
<path d="M6493 3783 c-48 -53 -50 -823 -2 -872 122 -121 198 2 184 301 l-10
231 125 -236 c150 -282 187 -327 267 -327 112 0 123 42 123 470 0 413 -13 470
-108 470 -98 0 -117 -56 -109 -316 8 -271 17 -274 -150 40 -144 270 -232 336
-320 239z"/>
<path d="M7293 3790 c-81 -81 -22 -175 113 -178 l84 -2 10 -346 c11 -368 15
-383 114 -384 95 0 106 38 106 391 0 249 6 330 25 331 14 2 54 5 89 7 110 9
159 87 106 171 -29 47 -601 56 -647 10z"/>
<path d="M8104 3789 c-43 -31 -44 -40 -44 -439 0 -496 -16 -470 292 -470 245
0 312 32 277 133 -19 56 -24 57 -184 63 l-165 6 0 89 0 89 129 0 c108 0 133 7
150 39 56 104 0 161 -160 161 l-119 0 0 80 0 80 146 0 c161 0 194 18 194 104
0 96 -399 146 -516 65z"/>
<path d="M8791 3789 c-26 -27 -31 -96 -31 -440 l0 -408 49 -32 c76 -50 443
-35 483 20 72 99 -4 171 -182 171 l-130 0 0 316 c0 253 -6 324 -31 360 -36 51
-112 58 -158 13z"/>
<path d="M9804 3789 c-58 -41 -70 -820 -13 -878 96 -95 189 -9 189 176 0 197
50 187 164 -32 91 -175 139 -207 235 -156 58 31 51 71 -38 236 -76 138 -78
145 -40 165 159 86 121 383 -60 475 -111 56 -365 64 -437 14z m332 -180 c96
-68 38 -209 -87 -209 l-69 0 0 120 c0 133 51 162 156 89z"/>
<path d="M10730 3797 c-462 -255 -161 -1132 306 -889 280 146 296 684 26 867
-75 50 -259 62 -332 22z m234 -217 c134 -135 43 -554 -111 -509 -140 42 -182
389 -62 518 61 66 99 64 173 -9z"/>
<path d="M9454 3118 c-54 -32 -77 -109 -50 -169 51 -113 216 -68 216 59 0 95
-90 154 -166 110z"/>
</g>
</svg>
